<?xml version="1.0" standalone="no"?>
<!DOCTYPE svg PUBLIC "-//W3C//DTD SVG 20010904//EN"
 "http://www.w3.org/TR/2001/REC-SVG-20010904/DTD/svg10.dtd">
<svg version="1.0" xmlns="http://www.w3.org/2000/svg"
 width="400.000000pt" height="400.000000pt" viewBox="0 0 400.000000 400.000000"
 preserveAspectRatio="xMidYMid meet">
<metadata>
Created by potrace 1.11, written by Peter Selinger 2001-2013
</metadata>
<g transform="translate(0.000000,400.000000) scale(0.100000,-0.100000)"
fill="#000000" stroke="none">
<path d="M0 2000 l0 -2000 2000 0 2000 0 0 2000 0 2000 -2000 0 -2000 0 0
-2000z m2402 1533 c2 -27 0 -51 -6 -55 -5 -3 -38 -12 -73 -18 -52 -10 -64 -16
-67 -34 -3 -11 -16 -196 -31 -411 -23 -353 -25 -446 -25 -980 1 -535 4 -625
28 -967 15 -207 30 -380 34 -383 4 -4 37 -14 75 -23 40 -10 68 -22 67 -29 -1
-7 -2 -29 -2 -48 l-2 -35 -405 0 -405 0 0 48 0 48 75 18 c41 10 75 23 75 29 0
7 14 203 30 436 27 388 30 469 30 936 0 469 -3 548 -30 940 -17 235 -33 431
-35 435 -3 4 -19 10 -37 14 -104 21 -108 23 -108 70 0 23 3 46 7 49 3 4 185 7
404 7 l397 0 4 -47z"/>
</g>
</svg>
